<svg xmlns="http://www.w3.org/2000/svg" version="1.1" xmlns:xlink="http://www.w3.org/1999/xlink" xmlns:svgjs="http://svgjs.dev/svgjs" width="2000" height="2250" viewBox="0 0 2000 2250"><g transform="matrix(1,0,0,1,0,0)"><svg viewBox="0 0 320 360" data-background-color="#ffffff" preserveAspectRatio="xMidYMid meet" height="2250" width="2000" xmlns="http://www.w3.org/2000/svg" xmlns:xlink="http://www.w3.org/1999/xlink"><g id="tight-bounds" transform="matrix(1,0,0,1,0,0)"><svg viewBox="0 0 320 360" height="360" width="320"><g><svg></svg></g><g><svg viewBox="0 0 320 360" height="360" width="320"><g><path d="M219.58 41.008c0.707 0 6.365 2.829 9.547 3.89-1.061 0.354-3.536-0.707-6.365-1.768 0.707 0 2.122 0.354 3.536 1.06-0.707-0.707-6.011-2.475-6.718-3.182M166.895 30.047c1.061-0.354 13.436 1.414 19.094 1.768 0.354-0.354-0.707-0.354-2.122-0.707 1.768-0.354 5.304 0.707 7.779 1.06-7.425 0.354-15.558-1.768-22.629-1.06-2.475 0-0.707-0.707-2.122-1.061M156.641 30.047c6.365 0 11.315 0 2.121 0.707-1.061-0.354-2.475-0.354-2.121-0.707M256.707 59.395c0.707 0 3.536 3.182 4.95 4.243-0.354 0.354-3.182-2.475-4.596-3.536 0.354 0.354 0 0-0.354-0.707M249.635 54.798c-2.829-2.475-3.889-2.475-4.243-3.889 2.475 1.414 4.243 2.829 4.243 3.889M204.022 32.522c0.354-0.354 1.061 0.354 2.829 0.707-2.122-0.354-1.768 0-1.061 0.707-2.475-0.354-3.182-0.707-2.475-1.414 1.414 0.707 1.768 0.354 0.707 0M103.602 36.765c0-0.354 1.414-1.061 2.475-1.414-1.061 0.707-0.707 1.061 1.061 0.353 0 0.354-2.122 1.061-3.536 1.768 0.707-0.354 1.414-1.414 0-0.707M211.094 28.986c-1.061 0.354-4.95-1.768-8.84-2.475-2.122-0.707 8.486 1.768 8.84 2.475M2.475 203.66c2.122 8.84 0.707 8.486 0 0M2.829 150.621c0.354-1.414 0.707-5.304 1.06-4.95-1.061 8.486-2.829 12.376-3.182 18.74 1.061-5.657-0.354 3.182-0.707 5.304 0.354 2.829 0.354-1.768 1.061-1.06 0.707 1.061-1.414 15.912-0.707 7.779-0.707 7.425 0 15.558 1.414 17.679-1.768 11.315 7.072 36.773 8.84 42.077 0.354 0.354 0-1.768 0.707-0.353 0.707 4.597 3.889 7.779 4.95 12.729 1.061 1.414 5.304 9.193 6.011 10.962 1.414 2.829 2.122 2.475 3.536 5.303 4.243 8.133 10.961 15.912 17.326 23.337 20.508 24.044 51.978 43.845 86.984 50.918 35.006 7.425 71.779 2.122 100.419-11.669 1.768-1.061 1.414-1.414 3.536-2.122 9.901-3.182 21.923-13.436 28.641-17.326 3.182-3.536 11.669-9.547 12.73-13.082 6.011-4.95 12.022-13.083 15.204-18.387 1.768-2.829 3.182-2.829 3.889-4.597-0.354 0 5.657-7.425 7.426-11.668-0.707 0-1.768 2.122-1.768 0 12.729-24.398 19.801-57.282 15.911-79.912 0.707 27.934-6.365 59.05-19.801 78.851-6.011 12.729-18.387 26.519-29.701 36.42-1.768 1.768-3.536 3.889-5.658 5.304-6.718 5.657-14.144 10.254-21.922 14.497-18.387 10.254-38.895 19.094-62.94 19.447 41.37-3.536 78.497-24.398 99.006-49.856-15.558 15.204-22.276 21.215-39.602 30.055-1.414 2.475-13.083 7.425-20.862 9.547 4.597-2.122 14.144-5.657 17.326-8.486-25.812 12.376-54.453 19.448-81.326 15.558 10.254 0 24.751 0.354 38.541-2.121 2.122-0.707 3.182-1.414 5.658-1.768 26.873-6.011 52.685-19.094 71.072-37.481-10.608 9.547-26.519 20.862-36.774 24.398 9.547-5.304 26.873-15.558 32.53-23.337-11.315 11.315-32.53 22.63-45.966 27.58-2.122 0.354 1.414-1.414-2.122 0-4.243 1.061-2.475 1.061-3.536 1.768-16.265 4.597-35.006 8.486-50.563 7.072-2.829-0.354-3.889-1.061-6.365-1.061-2.829-0.354-5.304-0.354-8.486-0.354-12.376-1.414-25.812-6.365-35.713-10.607-5.304-2.475-10.608-4.243-15.912-7.426-4.243-2.475-7.779-5.304-11.314-8.132-13.436-9.901-24.751-19.801-35.36-33.945-19.094-26.519-28.994-59.757-27.58-92.641 1.414-32.884 14.497-65.061 35.359-88.752-1.061 1.061 1.414-2.475 3.536-4.596 0 0.707-0.354 1.768 2.122-0.707 2.122-2.475-0.707-0.707 0.353-2.122 21.923-24.044 60.111-43.492 99.36-44.199 1.414-1.061 3.889-2.475 6.718-1.768 0 0.354-1.768 0.354-1.768 0.354 3.889-0.354 7.425-0.354 9.193 0.353 0.354-0.354-1.414-0.707 0-0.707 2.475 0.707 3.182 0 4.597 0.707-1.061 0-2.122 0-2.829 0.354 8.84 0 14.497 2.122 23.337 2.829-4.597-1.061-5.657-1.061-9.193-2.122 3.889 0.707 5.657 1.414 7.425 1.061-0.707 0-0.354-1.061 0.354-0.707 7.072 1.768 7.779 2.475 15.204 4.95 0.707-0.707-3.182-1.061-4.243-2.122 7.072 2.475 13.436 4.243 17.68 7.072-1.414-1.061-5.657-2.475-8.84-3.889-0.354 0.354 1.061 0.707 1.414 1.414-3.536-1.768-8.486-3.536-13.436-4.243 4.243 1.061 7.072 2.475 8.84 3.182-3.889-0.707-8.84-3.182-14.498-4.243 9.193 2.829 26.519 9.193 37.127 14.851-3.889-2.475-8.486-4.243-10.961-5.657 2.122 0.354 4.597 1.768 4.597 1.06 2.475 1.061 5.657 3.536 7.425 3.89-3.182-2.122-9.547-5.304-11.668-6.365 26.519 12.022 50.21 32.177 65.414 57.989 1.414 2.475 3.536 8.133 5.304 8.84-0.354-1.768-1.768-2.829-3.182-5.657 0.707 0 0.707-1.061 0-2.122-1.414-1.768 0 1.414-1.415-0.354-6.365-11.669-14.144-21.923-26.165-33.237 6.718 6.365 1.768 1.768 0.353-0.354 9.193 8.133 19.801 21.923 24.398 28.995-0.707-1.061-1.061-1.768-0.707-1.768 8.486 14.497 13.79 27.58 19.094 46.32 0.354 0.354 0-1.414 0.707-0.353 3.536 14.851 4.597 27.227 4.243 38.541 2.829-19.094-3.536-48.796-14.851-72.133-1.414-2.829-1.414-0.707-2.829-3.889 0-1.061-1.061-3.182-1.768-4.597-14.144-23.337-31.47-39.956-51.978-53.038 1.414 0.707 4.243 2.829 4.244 2.475-38.188-25.105-82.387-28.641-118.807-20.862-2.475 1.061-3.536 2.122-6.365 3.536 5.304-1.768 8.486-2.122 13.437-3.183 1.061-1.061-4.597 0.354-2.122-0.707 0.354 0.354 4.95-0.707 6.011-0.353 0 0.354-1.414 0.707-1.768 1.06 11.669-2.475 23.691-2.829 33.945-2.121-6.011 0.354-16.972-0.707-20.508 1.061 3.536-0.354 8.486-0.707 11.668-0.354-4.243 0-12.022 0.354-15.558 0.707-0.354-0.354 5.657-1.061 1.768-1.06-1.768 0.354-4.597 0.354-5.657 1.414-30.409 2.829-60.111 18.74-80.973 37.481-4.243 3.536-9.193 7.425-12.375 11.314-7.779 8.84-12.729 17.68-18.387 25.459 3.536-7.425 11.315-18.74 20.508-28.287 9.193-9.547 19.094-17.68 24.398-21.923 0 1.414 8.486-5.304 11.669-7.425-2.122 1.768 1.414-0.707 2.121-0.354 11.315-6.718 20.508-9.193 30.763-13.083-2.475 0.707-4.597 1.414-4.951 1.061 2.475-0.707 3.889-1.414 3.536-1.768-9.901 2.829-25.459 9.547-37.834 16.972 22.276-15.204 50.564-24.398 78.497-24.751 27.934-0.707 55.16 6.365 76.729 17.68 14.497 6.365 28.287 18.033 39.249 29.348 3.182 2.829 0.707-0.707 5.304 4.243-1.414-0.707-2.475-1.414-0.707 0.707 2.829 3.182-0.707-2.475 3.889 3.182-0.354 0-1.768-1.768-1.768-1.061 12.376 10.961 21.923 30.762 27.58 43.846-1.414-5.304-4.95-12.729-7.779-18.033 8.486 15.558 11.315 24.751 14.851 38.541 1.414 1.061-0.707-4.95 0.707-2.121 0.354 2.122 0.707 8.84 2.122 9.9-1.061-6.718-2.829-14.851-4.243-16.265 1.061 0.707-1.768-8.133-3.536-10.254-0.707-5.657-5.657-15.558-9.901-22.984-15.204-29.702-42.431-54.099-72.839-67.536 0-0.707-1.768-1.414-2.476-2.121-30.055-12.729-66.122-16.265-100.773-8.133-35.006 8.486-67.889 28.641-91.227 57.636 1.061-3.536 9.901-10.254 10.255-13.083-10.254 10.961-21.215 25.459-28.641 41.016-7.779 15.558-12.022 31.47-13.79 43.138" fill="#ffffff" fill-rule="nonzero" stroke="none" stroke-width="1" stroke-linecap="butt" stroke-linejoin="miter" stroke-miterlimit="10" stroke-dasharray="" stroke-dashoffset="0" font-family="none" font-weight="none" font-size="none" text-anchor="none" style="mix-blend-mode: normal" data-fill-palette-color="tertiary"></path></g><g transform="matrix(1,0,0,1,80.75947532814224,90)"><svg viewBox="0 0 158.4810493437155 180" height="180" width="158.4810493437155"><g><svg viewBox="0 0 204.904384627451 232.7268110961921" height="180" width="158.4810493437155"><g><svg viewBox="0 0 204.904384627451 232.7268110961921" height="232.7268110961921" width="204.904384627451"><g id="textblocktransform"><svg viewBox="0 0 204.904384627451 232.7268110961921" height="232.7268110961921" width="204.904384627451" id="textblock"><g><svg viewBox="0 0 204.904384627451 178.88760000000002" height="178.88760000000002" width="204.904384627451"><path d="M204.425 38.368C203.461 19.799 200.716 14.637 200.716 14.637 192.287-4.488 181.768-0.366 172.318 2.382 155.634 2.494 139.017 6.579 122.371 8.77 87.432 9.104 52.194 3.608 17.429 17.163 14.163 21.322-3.388 17.98 0.581 40.745 1.621 50.215 5.417 60.724 5.301 69.414 5.821 70.937 6.544 67.446 6.852 69.637 7.931 75.542 9.694 72.757 11.139 76.248 9.125 85.569 10.57 93.331 11.948 101.464 9.52 103.58 6.409 102.578 5.012 109.597 4.868 114.684 4.087 113.719 3.23 113.496 2.604 113.347 1.342 113.905 1.554 115.501 2.276 120.961-0.826 124.117 1.12 129.465-0.219 135.258 2.045 140.272 1.737 146.548 1.698 147.811 1.91 148.888 2.247 149.185 3.74 150.781 1.563 153.901 1.795 157.28 17.111 180.38 33.728 164.411 49.42 175.032 53.495 167.605 50.432 177.669 52.06 176.109 53.331 174.289 54.256 181.828 55.691 177.557 55.913 176.332 55.576 173.435 56.366 173.992 56.78 174.289 57.146 174.215 57.204 172.507 57.29 169.944 56.529 171.541 56.327 170.204 58.514 163.445 57.974 179.525 60.026 178.857 59.93 176.889 59.332 174.066 60.556 174.438 61.77 171.615 61.808 169.276 62.887 175.626 62.926 177 63.118 177.966 63.427 178.634 66.798 171.727 70.15 181.085 73.686 177.966 75.853 174.549 77.934 179.823 80.13 178.523 80.901 177.483 81.681 175.626 82.423 178.746 91.507 179.414 101.188 176.629 109.8 178.857 132.813 174.698 157.406 180.565 181.672 175.069 187.394 172.952 193.337 169.944 198.915 167.53 198.915 167.53 203.432 160.92 203.432 131.21S204.396 105.214 204.54 81.558C204.685 57.902 205.359 56.936 204.396 38.368Z" opacity="1" fill="#ffffff" data-fill-palette-color="tertiary"></path><g transform="matrix(1,0,0,1,31.584000000000003,18.981962000000003)"><svg width="141.736384627451" viewBox="1.9 -42.95 43.6 43.35" height="140.923676" data-palette-color="#ffffff"><path d="M1.9 0L1.9-42.95 13.25-42.95Q18.4-42.95 20.6-39.63 22.8-36.3 22.8-29.9L22.8-29.9Q22.8-23.5 20.85-20.25 18.9-17 13.85-17L13.85-17 10.35-17 10.35 0 1.9 0ZM10.35-24.75L10.85-24.75Q12.4-24.75 13.13-25.33 13.85-25.9 14.08-26.98 14.3-28.05 14.3-30.05L14.3-30.05Q14.3-32.75 13.7-33.95 13.1-35.15 11.3-35.15L11.3-35.15 10.35-35.15 10.35-24.75ZM35.05 0.4Q32.1 0.4 29.7-0.75 27.3-1.9 25.92-4.13 24.55-6.35 24.55-9.5L24.55-9.5 24.55-20.25 33-20.25 33-10Q33-8.85 33.47-8.18 33.95-7.5 34.95-7.5L34.95-7.5Q35.9-7.5 36.37-8.13 36.85-8.75 36.85-9.9L36.85-9.9 36.85-42.95 45.5-42.95 45.5-10.75Q45.5-7.4 44.17-4.88 42.85-2.35 40.47-0.98 38.1 0.4 35.05 0.4L35.05 0.4Z" opacity="1" transform="matrix(1,0,0,1,0,0)" fill="#000000" class="wordmark-text-0" data-fill-palette-color="quaternary" id="text-0"></path></svg></g></svg></g><g transform="matrix(1,0,0,1,29.711135770980405,212.15629773537603)"><svg viewBox="0 0 145.4821130854902 20.57051336081608" height="20.57051336081608" width="145.4821130854902"><g transform="matrix(1,0,0,1,0,0)"><svg width="145.4821130854902" viewBox="3.8 -38.15 351.81 49.75" height="20.57051336081608" data-palette-color="#000000"><path d="M5.45 0L5.45 0Q4.8 0 4.3-0.3 3.8-0.6 3.8-1.25L3.8-1.25 3.8-35.3Q3.8-35.9 4.28-36.23 4.75-36.55 5.3-36.55L5.3-36.55 23-36.55Q23.65-36.55 23.95-36.08 24.25-35.6 24.25-35.1L24.25-35.1Q24.25-34.45 23.93-33.98 23.6-33.5 23-33.5L23-33.5 7.1-33.5 7.1-19.75 15-19.75Q15.55-19.75 15.88-19.3 16.2-18.85 16.2-18.25L16.2-18.25Q16.2-17.8 15.93-17.35 15.65-16.9 15-16.9L15-16.9 7.1-16.9 7.1-1.25Q7.1-0.6 6.58-0.3 6.05 0 5.45 0ZM23.95 0L23.95 0Q23.3 0 22.82-0.4 22.35-0.8 22.35-1.3L22.35-1.3 22.35-22.45Q22.35-23 22.82-23.33 23.3-23.65 23.95-23.65L23.95-23.65Q24.6-23.65 25.05-23.33 25.5-23 25.5-22.45L25.5-22.45 25.5-20Q26.05-21 27-21.9 27.95-22.8 29.25-23.38 30.55-23.95 32.2-23.95L32.2-23.95 33.95-23.95Q34.5-23.95 34.87-23.53 35.25-23.1 35.25-22.45L35.25-22.45Q35.25-21.85 34.87-21.4 34.5-20.95 33.95-20.95L33.95-20.95 32.2-20.95Q30.55-20.95 29.02-20.08 27.5-19.2 26.55-17.57 25.6-15.95 25.6-13.65L25.6-13.65 25.6-1.3Q25.6-0.8 25.12-0.4 24.65 0 23.95 0ZM46.4 0.35L46.4 0.35Q43.85 0.35 41.7-0.98 39.55-2.3 38.22-4.48 36.9-6.65 36.9-9.15L36.9-9.15 36.9-14.6Q36.9-17.1 38.2-19.23 39.5-21.35 41.65-22.65 43.8-23.95 46.4-23.95L46.4-23.95Q48.95-23.95 51.12-22.68 53.3-21.4 54.6-19.3 55.9-17.2 55.9-14.6L55.9-14.6 55.9-9.15Q55.9-6.7 54.6-4.5 53.3-2.3 51.12-0.98 48.95 0.35 46.4 0.35ZM46.4-2.65L46.4-2.65Q48.15-2.65 49.55-3.58 50.95-4.5 51.8-6 52.65-7.5 52.65-9.15L52.65-9.15 52.65-14.6Q52.65-16.2 51.82-17.65 51-19.1 49.57-20.03 48.15-20.95 46.4-20.95L46.4-20.95Q44.65-20.95 43.25-20.03 41.85-19.1 41-17.65 40.15-16.2 40.15-14.6L40.15-14.6 40.15-9.15Q40.15-7.5 41-6 41.85-4.5 43.27-3.58 44.7-2.65 46.4-2.65ZM62.84 0L62.84 0Q62.19 0 61.72-0.4 61.24-0.8 61.24-1.3L61.24-1.3 61.24-22.45Q61.24-23 61.72-23.33 62.19-23.65 62.84-23.65L62.84-23.65Q63.49-23.65 63.94-23.33 64.39-23 64.39-22.45L64.39-22.45 64.39-20.15Q65.19-21.6 66.89-22.78 68.59-23.95 71.09-23.95L71.09-23.95Q73.49-23.95 75.52-22.68 77.54-21.4 78.74-19.3 79.94-17.2 79.94-14.6L79.94-14.6 79.94-1.3Q79.94-0.65 79.44-0.33 78.94 0 78.29 0L78.29 0Q77.74 0 77.22-0.33 76.69-0.65 76.69-1.3L76.69-1.3 76.69-14.6Q76.69-16.2 75.84-17.65 74.99-19.1 73.59-20.03 72.19-20.95 70.49-20.95L70.49-20.95Q68.99-20.95 67.62-20.18 66.24-19.4 65.37-18 64.49-16.6 64.49-14.6L64.49-14.6 64.49-1.3Q64.49-0.8 64.02-0.4 63.54 0 62.84 0ZM95.19 0L93.79 0Q89.94 0 87.89-1.75 85.84-3.5 85.84-7.35L85.84-7.35 85.84-33.7Q85.84-34.25 86.37-34.58 86.89-34.9 87.44-34.9L87.44-34.9Q88.09-34.9 88.59-34.58 89.09-34.25 89.09-33.7L89.09-33.7 89.09-23.65 95.59-23.65Q96.09-23.65 96.39-23.25 96.69-22.85 96.69-22.3L96.69-22.3Q96.69-21.75 96.39-21.35 96.09-20.95 95.59-20.95L95.59-20.95 89.09-20.95 89.09-7.35Q89.09-4.9 90.14-3.93 91.19-2.95 93.79-2.95L93.79-2.95 95.19-2.95Q95.89-2.95 96.27-2.53 96.64-2.1 96.64-1.5L96.64-1.5Q96.64-0.9 96.27-0.45 95.89 0 95.19 0L95.19 0ZM120.59 0.35L120.59 0.35Q117.44 0.35 115.01-0.85 112.59-2.05 111.21-4.17 109.84-6.3 109.84-9.15L109.84-9.15 109.84-14.75Q109.84-17.25 111.14-19.35 112.44-21.45 114.61-22.7 116.79-23.95 119.39-23.95L119.39-23.95Q121.89-23.95 124.01-22.78 126.14-21.6 127.44-19.55 128.74-17.5 128.74-14.85L128.74-14.85Q128.74-12.9 128.09-12.08 127.44-11.25 126.46-11.05 125.49-10.85 124.39-10.85L124.39-10.85 113.09-10.85 113.09-9Q113.09-6 115.24-4.25 117.39-2.5 120.69-2.5L120.69-2.5Q122.69-2.5 123.79-3 124.89-3.5 125.51-4 126.14-4.5 126.69-4.5L126.69-4.5Q127.09-4.5 127.41-4.23 127.74-3.95 127.91-3.6 128.09-3.25 128.09-2.95L128.09-2.95Q128.09-2.4 127.19-1.6 126.29-0.8 124.59-0.23 122.89 0.35 120.59 0.35ZM113.09-15.15L113.09-13.25 123.09-13.25Q124.59-13.25 125.09-13.58 125.59-13.9 125.59-14.95L125.59-14.95Q125.59-16.55 124.81-18 124.04-19.45 122.61-20.35 121.19-21.25 119.34-21.25L119.34-21.25Q117.64-21.25 116.21-20.43 114.79-19.6 113.94-18.23 113.09-16.85 113.09-15.15L113.09-15.15ZM135.18 0L135.18 0Q134.53 0 134.06-0.4 133.58-0.8 133.58-1.3L133.58-1.3 133.58-22.45Q133.58-23 134.06-23.33 134.53-23.65 135.18-23.65L135.18-23.65Q135.83-23.65 136.28-23.33 136.73-23 136.73-22.45L136.73-22.45 136.73-20.15Q137.53-21.6 139.23-22.78 140.93-23.95 143.43-23.95L143.43-23.95Q145.83-23.95 147.86-22.68 149.88-21.4 151.08-19.3 152.28-17.2 152.28-14.6L152.28-14.6 152.28-1.3Q152.28-0.65 151.78-0.33 151.28 0 150.63 0L150.63 0Q150.08 0 149.56-0.33 149.03-0.65 149.03-1.3L149.03-1.3 149.03-14.6Q149.03-16.2 148.18-17.65 147.33-19.1 145.93-20.03 144.53-20.95 142.83-20.95L142.83-20.95Q141.33-20.95 139.96-20.18 138.58-19.4 137.71-18 136.83-16.6 136.83-14.6L136.83-14.6 136.83-1.3Q136.83-0.8 136.36-0.4 135.88 0 135.18 0ZM166.28 0.35L166.28 0.35Q163.93 0.35 161.88-0.98 159.83-2.3 158.63-4.5 157.43-6.7 157.43-9.15L157.43-9.15 157.43-14.6Q157.43-17.2 158.63-19.3 159.83-21.4 161.88-22.68 163.93-23.95 166.38-23.95L166.38-23.95Q168.83-23.95 170.5-22.78 172.18-21.6 172.98-20.15L172.98-20.15 172.98-36.95Q172.98-37.5 173.48-37.83 173.98-38.15 174.63-38.15L174.63-38.15Q175.38-38.15 175.81-37.83 176.23-37.5 176.23-36.95L176.23-36.95 176.23-1.3Q176.23-0.8 175.81-0.4 175.38 0 174.63 0L174.63 0Q174.03 0 173.58-0.4 173.13-0.8 173.13-1.3L173.13-1.3 173.13-3.5Q172.33-1.95 170.46-0.8 168.58 0.35 166.28 0.35ZM166.83-2.65L166.83-2.65Q168.63-2.65 170-3.58 171.38-4.5 172.18-5.68 172.98-6.85 172.98-7.6L172.98-7.6 172.98-14.6Q172.98-16.6 172.08-18 171.18-19.4 169.78-20.18 168.38-20.95 166.88-20.95L166.88-20.95Q165.18-20.95 163.78-20.03 162.38-19.1 161.53-17.65 160.68-16.2 160.68-14.6L160.68-14.6 160.68-9.15Q160.68-7.5 161.53-6 162.38-4.5 163.78-3.58 165.18-2.65 166.83-2.65ZM202.38 0.35L202.38 0.35Q199.22 0.35 196.8-0.85 194.38-2.05 193-4.17 191.63-6.3 191.63-9.15L191.63-9.15 191.63-14.75Q191.63-17.25 192.93-19.35 194.22-21.45 196.4-22.7 198.57-23.95 201.18-23.95L201.18-23.95Q203.68-23.95 205.8-22.78 207.93-21.6 209.22-19.55 210.53-17.5 210.53-14.85L210.53-14.85Q210.53-12.9 209.88-12.08 209.22-11.25 208.25-11.05 207.28-10.85 206.18-10.85L206.18-10.85 194.88-10.85 194.88-9Q194.88-6 197.03-4.25 199.18-2.5 202.47-2.5L202.47-2.5Q204.47-2.5 205.57-3 206.68-3.5 207.3-4 207.93-4.5 208.47-4.5L208.47-4.5Q208.88-4.5 209.2-4.23 209.53-3.95 209.7-3.6 209.88-3.25 209.88-2.95L209.88-2.95Q209.88-2.4 208.97-1.6 208.07-0.8 206.38-0.23 204.68 0.35 202.38 0.35ZM194.88-15.15L194.88-13.25 204.88-13.25Q206.38-13.25 206.88-13.58 207.38-13.9 207.38-14.95L207.38-14.95Q207.38-16.55 206.6-18 205.82-19.45 204.4-20.35 202.97-21.25 201.13-21.25L201.13-21.25Q199.43-21.25 198-20.43 196.57-19.6 195.72-18.23 194.88-16.85 194.88-15.15L194.88-15.15ZM216.97 0L216.97 0Q216.32 0 215.85-0.4 215.37-0.8 215.37-1.3L215.37-1.3 215.37-22.45Q215.37-23 215.85-23.33 216.32-23.65 216.97-23.65L216.97-23.65Q217.62-23.65 218.07-23.33 218.52-23 218.52-22.45L218.52-22.45 218.52-20.15Q219.32-21.6 221.02-22.78 222.72-23.95 225.22-23.95L225.22-23.95Q227.62-23.95 229.65-22.68 231.67-21.4 232.87-19.3 234.07-17.2 234.07-14.6L234.07-14.6 234.07-1.3Q234.07-0.65 233.57-0.33 233.07 0 232.42 0L232.42 0Q231.87 0 231.35-0.33 230.82-0.65 230.82-1.3L230.82-1.3 230.82-14.6Q230.82-16.2 229.97-17.65 229.12-19.1 227.72-20.03 226.32-20.95 224.62-20.95L224.62-20.95Q223.12-20.95 221.75-20.18 220.37-19.4 219.5-18 218.62-16.6 218.62-14.6L218.62-14.6 218.62-1.3Q218.62-0.8 218.15-0.4 217.67 0 216.97 0ZM248.47 11.6L248.47 11.6Q245.52 11.6 243.25 10.78 240.97 9.95 239.65 8.47 238.32 7 238.32 4.95L238.32 4.95Q238.32 2.75 239.62 1.45 240.92 0.15 242.57-0.5L242.57-0.5Q241.37-0.95 240.6-1.73 239.82-2.5 239.82-3.95L239.82-3.95Q239.82-5.35 240.52-6.18 241.22-7 242.32-7.55L242.32-7.55Q240.97-8.65 240.27-10.28 239.57-11.9 239.57-13.85L239.57-13.85 239.57-15.75Q239.57-18.15 240.62-20 241.67-21.85 243.62-22.9 245.57-23.95 248.17-23.95L248.17-23.95Q249.92-23.95 251.42-23.4 252.92-22.85 254.02-21.85L254.02-21.85Q254.77-23.4 255.72-24.2 256.67-25 257.57-25L257.57-25Q258.32-25 258.7-24.58 259.07-24.15 259.07-23.7L259.07-23.7Q259.07-23.25 258.82-22.98 258.57-22.7 258.22-22.6L258.22-22.6Q257.62-22.5 256.85-22.05 256.07-21.6 255.42-20.45L255.42-20.45Q256.12-19.5 256.47-18.3 256.82-17.1 256.82-15.75L256.82-15.75 256.82-13.85Q256.82-11.5 255.72-9.6 254.62-7.7 252.65-6.63 250.67-5.55 248.12-5.55L248.12-5.55Q245.97-5.55 244.27-6.4L244.27-6.4Q243.72-6.1 243.22-5.68 242.72-5.25 242.72-4.45L242.72-4.45Q242.72-3.35 243.87-2.85 245.02-2.35 246.77-2.15 248.52-1.95 250.5-1.73 252.47-1.5 254.25-0.9 256.02-0.3 257.15 0.95 258.27 2.2 258.27 4.5L258.27 4.5Q258.27 6.85 257 8.43 255.72 10 253.52 10.8 251.32 11.6 248.47 11.6ZM248.42 9.15L248.42 9.15Q251.57 9.15 253.35 7.9 255.12 6.65 255.12 4.6L255.12 4.6Q255.12 3 254.15 2.18 253.17 1.35 251.7 1 250.22 0.65 248.65 0.5 247.07 0.35 245.92 0.2L245.92 0.2Q244.17 0.75 242.82 1.8 241.47 2.85 241.47 4.65L241.47 4.65Q241.47 6.65 243.32 7.9 245.17 9.15 248.42 9.15ZM248.22-8L248.22-8Q250.77-8 252.2-9.68 253.62-11.35 253.62-13.85L253.62-13.85 253.62-15.75Q253.62-18.2 252.2-19.85 250.77-21.5 248.17-21.5L248.17-21.5Q245.57-21.5 244.15-19.85 242.72-18.2 242.72-15.75L242.72-15.75 242.72-13.9Q242.72-11.4 244.17-9.7 245.62-8 248.22-8ZM264.37 0L264.37 0Q263.72 0 263.24-0.4 262.77-0.8 262.77-1.3L262.77-1.3 262.77-22.45Q262.77-23 263.24-23.33 263.72-23.65 264.37-23.65L264.37-23.65Q265.07-23.65 265.54-23.33 266.02-23 266.02-22.45L266.02-22.45 266.02-1.3Q266.02-0.8 265.54-0.4 265.07 0 264.37 0ZM264.37-30.65L264.37-30.65Q263.47-30.65 262.82-31.28 262.17-31.9 262.17-32.75L262.17-32.75Q262.17-33.6 262.82-34.2 263.47-34.8 264.37-34.8L264.37-34.8Q265.32-34.8 265.94-34.2 266.57-33.6 266.57-32.75L266.57-32.75Q266.57-31.9 265.94-31.28 265.32-30.65 264.37-30.65ZM273.81 0L273.81 0Q273.17 0 272.69-0.4 272.22-0.8 272.22-1.3L272.22-1.3 272.22-22.45Q272.22-23 272.69-23.33 273.17-23.65 273.81-23.65L273.81-23.65Q274.47-23.65 274.92-23.33 275.37-23 275.37-22.45L275.37-22.45 275.37-20.15Q276.17-21.6 277.87-22.78 279.56-23.95 282.06-23.95L282.06-23.95Q284.47-23.95 286.49-22.68 288.51-21.4 289.72-19.3 290.92-17.2 290.92-14.6L290.92-14.6 290.92-1.3Q290.92-0.65 290.42-0.33 289.92 0 289.26 0L289.26 0Q288.72 0 288.19-0.33 287.67-0.65 287.67-1.3L287.67-1.3 287.67-14.6Q287.67-16.2 286.81-17.65 285.97-19.1 284.56-20.03 283.17-20.95 281.47-20.95L281.47-20.95Q279.97-20.95 278.59-20.18 277.22-19.4 276.34-18 275.47-16.6 275.47-14.6L275.47-14.6 275.47-1.3Q275.47-0.8 274.99-0.4 274.51 0 273.81 0ZM306.81 0.35L306.81 0.35Q303.66 0.35 301.24-0.85 298.81-2.05 297.44-4.17 296.06-6.3 296.06-9.15L296.06-9.15 296.06-14.75Q296.06-17.25 297.36-19.35 298.66-21.45 300.84-22.7 303.01-23.95 305.61-23.95L305.61-23.95Q308.11-23.95 310.24-22.78 312.36-21.6 313.66-19.55 314.96-17.5 314.96-14.85L314.96-14.85Q314.96-12.9 314.31-12.08 313.66-11.25 312.69-11.05 311.71-10.85 310.61-10.85L310.61-10.85 299.31-10.85 299.31-9Q299.31-6 301.46-4.25 303.61-2.5 306.91-2.5L306.91-2.5Q308.91-2.5 310.01-3 311.11-3.5 311.74-4 312.36-4.5 312.91-4.5L312.91-4.5Q313.31-4.5 313.64-4.23 313.96-3.95 314.14-3.6 314.31-3.25 314.31-2.95L314.31-2.95Q314.31-2.4 313.41-1.6 312.51-0.8 310.81-0.23 309.11 0.35 306.81 0.35ZM299.31-15.15L299.31-13.25 309.31-13.25Q310.81-13.25 311.31-13.58 311.81-13.9 311.81-14.95L311.81-14.95Q311.81-16.55 311.04-18 310.26-19.45 308.84-20.35 307.41-21.25 305.56-21.25L305.56-21.25Q303.86-21.25 302.44-20.43 301.01-19.6 300.16-18.23 299.31-16.85 299.31-15.15L299.31-15.15ZM329.71 0.35L329.71 0.35Q326.56 0.35 324.13-0.85 321.71-2.05 320.33-4.17 318.96-6.3 318.96-9.15L318.96-9.15 318.96-14.75Q318.96-17.25 320.26-19.35 321.56-21.45 323.73-22.7 325.91-23.95 328.51-23.95L328.51-23.95Q331.01-23.95 333.13-22.78 335.26-21.6 336.56-19.55 337.86-17.5 337.86-14.85L337.86-14.85Q337.86-12.9 337.21-12.08 336.56-11.25 335.58-11.05 334.61-10.85 333.51-10.85L333.51-10.85 322.21-10.85 322.21-9Q322.21-6 324.36-4.25 326.51-2.5 329.81-2.5L329.81-2.5Q331.81-2.5 332.91-3 334.01-3.5 334.63-4 335.26-4.5 335.81-4.5L335.81-4.5Q336.21-4.5 336.53-4.23 336.86-3.95 337.03-3.6 337.21-3.25 337.21-2.95L337.21-2.95Q337.21-2.4 336.31-1.6 335.41-0.8 333.71-0.23 332.01 0.35 329.71 0.35ZM322.21-15.15L322.21-13.25 332.21-13.25Q333.71-13.25 334.21-13.58 334.71-13.9 334.71-14.95L334.71-14.95Q334.71-16.55 333.94-18 333.16-19.45 331.73-20.35 330.31-21.25 328.46-21.25L328.46-21.25Q326.76-21.25 325.33-20.43 323.91-19.6 323.06-18.23 322.21-16.85 322.21-15.15L322.21-15.15ZM344.31 0L344.31 0Q343.66 0 343.18-0.4 342.71-0.8 342.71-1.3L342.71-1.3 342.71-22.45Q342.71-23 343.18-23.33 343.66-23.65 344.31-23.65L344.31-23.65Q344.96-23.65 345.41-23.33 345.86-23 345.86-22.45L345.86-22.45 345.86-20Q346.41-21 347.36-21.9 348.31-22.8 349.61-23.38 350.91-23.95 352.56-23.95L352.56-23.95 354.31-23.95Q354.86-23.95 355.23-23.53 355.61-23.1 355.61-22.45L355.61-22.45Q355.61-21.85 355.23-21.4 354.86-20.95 354.31-20.95L354.31-20.95 352.56-20.95Q350.91-20.95 349.38-20.08 347.86-19.2 346.91-17.57 345.96-15.95 345.96-13.65L345.96-13.65 345.96-1.3Q345.96-0.8 345.48-0.4 345.01 0 344.31 0Z" opacity="1" transform="matrix(1,0,0,1,0,0)" fill="#ffffff" class="slogan-text-1" data-fill-palette-color="secondary" id="text-1"></path></svg></g></svg></g></svg></g></svg></g><g></g></svg></g></svg></g></svg></g><defs></defs></svg><rect width="320" height="360" fill="none" stroke="none" visibility="hidden"></rect></g></svg></g></svg>